<?xml version="1.0" encoding="UTF-8"?>
<svg version="1.1" xmlns="http://www.w3.org/2000/svg" width="1254" height="1254">
<path d="M0 0 C3.62847976 0.3552979 4.97714261 1.15530076 7.81640625 3.375 C29.69005195 19.4890171 55.12028793 26.17802317 81.53515625 30.61401367 C87.20673151 31.56763081 92.71085366 32.55519251 98.19140625 34.3125 C98.96484375 36.375 98.96484375 36.375 99.19140625 39.3125 C97.83264314 41.850454 96.48857458 43.99932882 94.81640625 46.3125 C94.12792603 47.30262085 94.12792603 47.30262085 93.42553711 48.31274414 C92.47895774 49.67140422 91.52603727 51.02566795 90.56689453 52.37548828 C89.33201066 54.11449585 88.11430245 55.86339082 86.90625 57.62109375 C84.25391861 61.47684229 81.57976973 65.31728818 78.90673828 69.15869141 C51.99505132 105.75147478 51.99505132 105.75147478 45.19140625 149.3125 C46.87990502 156.57935686 49.94287534 162.31033049 55.8828125 166.9140625 C71.62455137 176.44966743 90.2443403 173.96002236 107.25634766 169.80859375 C117.92798933 167.01862207 127.53270206 162.57783527 137.19140625 157.3125 C138.80015625 156.44431641 138.80015625 156.44431641 140.44140625 155.55859375 C152.51000441 148.78572161 162.82342363 140.19360107 172.77392578 130.66699219 C173.98511537 129.50962398 175.20995962 128.36657391 176.4375 127.2265625 C181.94277102 121.97606258 186.41964977 115.98045126 190.97753906 109.91992188 C192.81405234 107.48798233 194.68239593 105.0827845 196.56640625 102.6875 C197.17226563 101.91148437 197.778125 101.13546875 198.40234375 100.3359375 C202.14016396 96.10844653 205.97868886 94.50450039 211.31640625 92.9375 C212.3535376 92.62594971 212.3535376 92.62594971 213.41162109 92.30810547 C214.89290984 91.86639886 216.37554797 91.42919698 217.859375 90.99609375 C220.25599618 90.2935666 222.64525642 89.56877579 225.03515625 88.84375 C226.6284854 88.37357147 228.22222693 87.90478784 229.81640625 87.4375 C230.56164551 87.2101416 231.30688477 86.9827832 232.07470703 86.74853516 C238.33780419 84.9596868 242.50446055 85.31195007 248.328125 88.38671875 C249.85021802 89.24875409 251.36705746 90.12012198 252.87890625 91 C254.38249387 91.85863112 255.88640458 92.7166967 257.390625 93.57421875 C258.16470703 94.01805908 258.93878906 94.46189941 259.73632812 94.91918945 C265.97627316 98.46049477 272.30311445 101.84474702 278.63671875 105.21484375 C292.47526249 112.59394449 305.98239803 120.4213068 319.36865234 128.59033203 C321.90596452 130.13835141 324.44787855 131.67836295 326.9921875 133.21484375 C346.19011519 144.83519677 364.97155627 157.07314473 383.60302734 169.57763672 C386.32125257 171.39952961 389.04644778 173.21056445 391.77392578 175.01855469 C407.99226284 185.78012182 424.22498767 196.5890075 439.9921875 208.00390625 C443.10408958 210.24949127 446.24030978 212.45617062 449.38354492 214.6574707 C457.22424512 220.15323943 464.92395729 225.80927631 472.5625 231.58203125 C475.55744021 233.84354836 478.58241921 236.05818353 481.62890625 238.25 C488.50698857 243.22607152 495.21676322 248.42171612 501.94775391 253.59375 C504.17343286 255.29873149 506.40580204 256.99452687 508.640625 258.6875 C516.03367282 264.2947994 523.31607659 269.97281305 530.40625 275.9609375 C535.78830522 280.50511315 541.21886097 285.00698672 546.78515625 289.32421875 C550.3681721 292.28486009 553.20881529 295.76486183 556.19140625 299.3125 C556.89265625 300.116875 557.59390625 300.92125 558.31640625 301.75 C562.23684915 307.10793864 565.77760342 312.55372045 566.19140625 319.3125 C566.28421875 320.40304687 566.28421875 320.40304687 566.37890625 321.515625 C566.72926333 328.47897197 565.05142177 334.00531346 562.19140625 340.3125 C561.70027344 341.41464844 561.70027344 341.41464844 561.19921875 342.5390625 C557.83918672 348.89123985 552.37802895 351.98124162 546.19140625 355.3125 C545.55460938 355.67601562 544.9178125 356.03953125 544.26171875 356.4140625 C535.41653362 360.62043943 522.33432742 359.12588045 513.21484375 356.4609375 C494.79294276 349.46347123 478.06001719 336.88596834 461.63671875 326.1953125 C448.34020801 317.55106611 434.91442081 309.10409252 421.45166016 300.72167969 C418.83575924 299.09076804 416.22245528 297.45573957 413.609375 295.8203125 C396.32932756 284.99848821 396.32932756 284.99848821 378.984375 274.28125 C375.91037498 272.39257654 372.87608403 270.45934729 369.8671875 268.46875 C362.49772224 263.39218272 362.49772224 263.39218272 353.87890625 262 C350.18770376 262.88709338 350.18770376 262.88709338 348.98828125 265.2109375 C347.86602708 268.1706078 347.74232671 270.16894323 348.19140625 273.3125 C352.22235291 278.13988371 357.27904062 281.04491143 362.62890625 284.25 C364.52035116 285.40099747 366.41094932 286.55338734 368.30078125 287.70703125 C369.27337891 288.2995166 370.24597656 288.89200195 371.24804688 289.50244141 C375.99583663 292.42215883 380.68609507 295.43050818 385.37890625 298.4375 C391.87848874 302.59325925 398.40435017 306.69243843 405.00390625 310.6875 C414.47018969 316.42291617 423.76985909 322.41330052 433.08203125 328.39453125 C438.33262962 331.76630301 443.59930505 335.11136813 448.87890625 338.4375 C457.54931599 343.90287999 466.20741861 349.38714249 474.84375 354.90625 C478.30197503 357.11551535 481.77288856 359.30187286 485.2578125 361.46875 C486.79823016 362.4374156 488.33859767 363.40616096 489.87890625 364.375 C490.57967285 364.80369385 491.28043945 365.2323877 492.00244141 365.67407227 C496.78443842 368.70426637 499.49010852 371.44355474 500.87890625 377.125 C501.91722417 387.71584283 500.09883934 398.42854633 493.92578125 407.40234375 C487.26515745 414.73803077 478.8217423 420.45879484 468.83691406 421.57592773 C466.44706792 421.67686196 464.08267968 421.67376169 461.69140625 421.625 C460.90121094 421.62822266 460.11101563 421.63144531 459.296875 421.63476562 C450.2078244 421.55294929 442.86535992 419.59472756 434.94140625 415.1875 C434.28011719 414.83429688 433.61882813 414.48109375 432.9375 414.1171875 C426.78054978 410.77782467 420.85638312 407.06071445 414.9052124 403.37139893 C409.83238613 400.23708278 404.72690762 397.15563759 399.62890625 394.0625 C399.023349 393.69499634 398.41779175 393.32749268 397.79388428 392.94885254 C385.19130619 385.30175122 372.5825405 377.66472914 359.8828125 370.1796875 C358.97861572 369.64666016 358.07441895 369.11363281 357.14282227 368.56445312 C355.30991132 367.48552737 353.47577489 366.40868064 351.64038086 365.33398438 C346.71057722 362.43650983 341.83437841 359.47467142 337.00390625 356.4140625 C335.98014893 355.77130371 334.9563916 355.12854492 333.90161133 354.46630859 C331.93951532 353.23050981 329.98563216 351.98153747 328.04174805 350.71728516 C322.66443594 347.34527747 317.71451758 344.66701304 311.19140625 345.3125 C308.990483 346.10629769 308.990483 346.10629769 307.19140625 347.3125 C306.34244637 349.34785845 306.34244637 349.34785845 306.19140625 351.6875 C306.08828125 352.45835937 305.98515625 353.22921875 305.87890625 354.0234375 C306.32812483 357.31396362 307.63316101 358.23289419 310.19140625 360.3125 C312.42330069 361.75369817 314.64292091 363.11373221 316.94140625 364.4375 C318.31069244 365.2421355 319.67915834 366.04816826 321.046875 366.85546875 C321.74345215 367.26587402 322.4400293 367.6762793 323.15771484 368.09912109 C326.22425098 369.92873509 329.23719846 371.83976915 332.25390625 373.75 C339.95143243 378.60129986 347.75779604 383.26832946 355.56640625 387.9375 C367.34993812 394.98540023 379.07560846 402.11838048 390.75390625 409.33984375 C394.68144147 411.76849092 398.61594611 414.18487184 402.56085205 416.58514404 C404.94804423 418.03771927 407.33311699 419.49375623 409.71813965 420.94989014 C411.3911569 421.96937947 413.0671175 422.98403374 414.74316406 423.99853516 C428.08815951 432.15615409 428.08815951 432.15615409 430.56640625 437 C432.67494499 448.17525533 429.98472161 458.10615484 423.66015625 467.53515625 C418.10709221 474.25495448 409.62533299 478.48653904 401.19140625 480.3125 C397.96529964 480.55459555 394.73822797 480.54354427 391.50390625 480.5625 C390.21323242 480.5934375 390.21323242 480.5934375 388.89648438 480.625 C382.77537884 480.66190192 377.85936202 479.57996293 372.19140625 477.3125 C371.25554687 476.95929688 370.3196875 476.60609375 369.35546875 476.2421875 C349.13897393 467.84456658 329.82970104 457.6275641 310.75634766 446.92651367 C305.26031317 443.86074372 299.69163139 440.9838262 294.03417969 438.22802734 C290.68717585 436.59136088 287.40786879 434.89382216 284.17578125 433.0390625 C274.81737453 427.6462992 274.81737453 427.6462992 264.19140625 427.3125 C263.20140625 427.6425 262.21140625 427.9725 261.19140625 428.3125 C260.85109375 430.1378125 260.85109375 430.1378125 260.50390625 432 C260.31248047 433.02673828 260.31248047 433.02673828 260.1171875 434.07421875 C260.22178052 437.22852393 261.36299023 438.75583516 263.19140625 441.3125 C265.65527666 443.10564953 265.65527666 443.10564953 268.58984375 444.5546875 C269.69465088 445.13839111 270.79945801 445.72209473 271.93774414 446.32348633 C273.14714682 446.94511877 274.35670512 447.56644853 275.56640625 448.1875 C276.82016808 448.84352265 278.07333241 449.50068834 279.32592773 450.15893555 C282.61237124 451.8813943 285.90725471 453.58698213 289.20513916 455.28741455 C291.7870147 456.61988542 294.36529381 457.95922898 296.94361877 459.29855347 C302.46601424 462.16682047 307.9945891 465.02286898 313.52734375 467.87109375 C319.16322467 470.7752244 324.77662442 473.71919707 330.37890625 476.6875 C339.24186878 481.3794851 348.20293142 485.86658772 357.19140625 490.3125 C355.7901433 499.53217326 348.25541435 505.82080338 341.19140625 511.3125 C321.00985655 525.08418643 299.50146549 526.61496159 276.01171875 522.265625 C274.40443492 521.95052216 272.79765555 521.63283462 271.19140625 521.3125 C270.42795898 521.16748047 269.66451172 521.02246094 268.87792969 520.87304688 C256.07744979 518.38301668 243.82089266 514.33395805 231.50390625 510.125 C230.71081055 509.85511261 229.91771484 509.58522522 229.10058594 509.30715942 C226.83244381 508.53171893 224.56793956 507.74661722 222.3046875 506.95703125 C221.61607132 506.72070984 220.92745514 506.48438843 220.2179718 506.24090576 C217.3358144 505.22136958 215.38164064 504.50273439 213.19140625 502.3125 C212.49898097 497.05157312 214.0502757 494.32086847 216.94140625 490 C225.44524135 476.9196235 227.58769548 465.80977611 226.19140625 450.3125 C225.11448883 445.58951687 223.46599318 441.57807397 221.19140625 437.3125 C220.69511719 436.37277344 220.19882812 435.43304687 219.6875 434.46484375 C211.69749068 420.77593621 199.25096129 409.9355951 183.78515625 405.79296875 C179.76509836 405.04828935 175.74104309 404.79463662 171.66015625 404.62109375 C169.19140625 404.3125 169.19140625 404.3125 167.19140625 402.3125 C166.93603516 400.33227539 166.93603516 400.33227539 166.91796875 397.91015625 C166.90032471 397.02505371 166.88268066 396.13995117 166.86450195 395.22802734 C166.84863037 394.28652832 166.83275879 393.3450293 166.81640625 392.375 C166.54758489 384.33202732 165.89271028 377.58503029 162.19140625 370.3125 C161.75699219 369.40628906 161.32257813 368.50007813 160.875 367.56640625 C153.79977039 353.66656824 143.28100117 343.02392612 128.7265625 337.01171875 C124.02542138 335.71510202 119.19215865 335.27954078 114.3515625 334.8046875 C111.19140625 334.3125 111.19140625 334.3125 109.19140625 332.3125 C108.93603516 330.45581055 108.93603516 330.45581055 108.91796875 328.19921875 C108.89150269 326.95470947 108.89150269 326.95470947 108.86450195 325.68505859 C108.84069458 324.35595459 108.84069458 324.35595459 108.81640625 323 C108.36546458 310.2532307 105.58141847 299.85011002 98.19140625 289.3125 C97.59328125 288.4565625 96.99515625 287.600625 96.37890625 286.71875 C88.43743438 276.08742475 76.29787824 267.76783163 63.0234375 265.59375 C48.61989169 264.1633289 36.993796 265.64365411 25.19140625 274.3125 C20.05410815 278.81267636 15.78465382 283.48896083 12.19140625 289.3125 C11.2124109 290.78501629 10.21103155 292.24281998 9.19140625 293.6875 C8.71703125 294.37585938 8.24265625 295.06421875 7.75390625 295.7734375 C6.19140625 297.3125 6.19140625 297.3125 2.19140625 297.3125 C0.59375 295.30078125 0.59375 295.30078125 -0.87109375 292.625 C-1.35707031 291.75488281 -1.84304688 290.88476562 -2.34375 289.98828125 C-3.06884766 288.66376953 -3.06884766 288.66376953 -3.80859375 287.3125 C-11.52181857 274.03429599 -22.37810751 264.24997574 -37.0234375 259.125 C-48.73112321 256.61189512 -63.09914844 256.47245505 -73.80859375 262.3125 C-77.96959418 265.16100856 -82.01834434 268.17852271 -85.2734375 272.05859375 C-86.80859375 273.3125 -86.80859375 273.3125 -89.234375 273.76171875 C-92.70249227 273.1565086 -93.74808198 271.79043755 -95.99609375 269.125 C-96.67027344 268.34769531 -97.34445312 267.57039063 -98.0390625 266.76953125 C-99.78722874 264.34216577 -100.83330019 262.12834755 -101.80859375 259.3125 C-102.46859375 259.3125 -103.12859375 259.3125 -103.80859375 259.3125 C-105.20912464 257.63729602 -106.52757087 255.89326908 -107.80859375 254.125 C-108.60829953 253.02916226 -109.40912373 251.93414003 -110.2109375 250.83984375 C-110.63101074 250.26476074 -111.05108398 249.68967773 -111.48388672 249.09716797 C-112.83776233 247.27320359 -114.22403487 245.47941031 -115.625 243.69140625 C-116.31239258 242.81295044 -116.31239258 242.81295044 -117.01367188 241.91674805 C-117.90886845 240.77633846 -118.8072421 239.63841469 -119.70898438 238.50317383 C-122.80859375 234.53318527 -122.80859375 234.53318527 -122.80859375 232.3125 C-123.46859375 232.3125 -124.12859375 232.3125 -124.80859375 232.3125 C-126.1328125 231.02734375 -126.1328125 231.02734375 -127.49609375 229.25 C-128.18251953 228.39728516 -128.18251953 228.39728516 -128.8828125 227.52734375 C-130.27567774 224.1950459 -129.88854592 221.6481309 -128.80859375 218.3125 C-126.95876004 214.41448991 -124.80865358 210.71668103 -122.62109375 207 C-121.77321289 205.52756836 -121.77321289 205.52756836 -120.90820312 204.02539062 C-117.77316047 198.59921714 -114.56177642 193.2203411 -111.3293457 187.85180664 C-108.51471488 183.15201932 -105.75599047 178.41957054 -102.99609375 173.6875 C-102.38660889 172.64295654 -101.77712402 171.59841309 -101.14916992 170.5222168 C-97.2280532 163.78779853 -93.35314148 157.03022461 -89.5612793 150.22216797 C-88.20408301 147.78548331 -86.83736363 145.36041984 -85.40161133 142.96899414 C-83.75215748 140.21838766 -82.14745583 137.44562062 -80.55078125 134.6640625 C-79.92937256 133.58326416 -79.30796387 132.50246582 -78.66772461 131.38891602 C-78.01296143 130.24994873 -77.35819824 129.11098145 -76.68359375 127.9375 C-72.4317823 120.54656156 -68.16768966 113.16611741 -63.74609375 105.875 C-60.78163549 100.98620875 -57.97607583 96.0345303 -55.2734375 90.99609375 C-53.09116868 86.99817727 -50.77223538 83.08286383 -48.46484375 79.15625 C-47.02456104 76.68331176 -45.62379294 74.19561904 -44.24609375 71.6875 C-42.58493091 68.66809013 -40.85261101 65.7063639 -39.0625 62.76171875 C-35.10732834 56.19213208 -31.38889325 49.4930567 -27.6640625 42.79101562 C-24.67503801 37.4585674 -21.54702071 32.31161656 -18.10791016 27.25805664 C-16.50036901 24.85097371 -15.09981057 22.36995917 -13.74609375 19.8125 C-13.25367188 18.89210938 -12.76125 17.97171875 -12.25390625 17.0234375 C-11.77695312 16.12882812 -11.3 15.23421875 -10.80859375 14.3125 C-9.51588814 11.95349485 -8.21407679 9.60139733 -6.88671875 7.26171875 C-5.98201059 5.62603261 -5.16533669 3.94208278 -4.37109375 2.25 C-2.80859375 0.3125 -2.80859375 0.3125 0 0 Z " fill="#040404" transform="translate(369.80859375,399.6875)"/>
<path d="M0 0 C32.38670877 8.43899801 63.06426147 13.35114832 96.44238281 7.28515625 C99.26796786 6.7771859 102.09308818 6.34712447 104.94140625 5.98828125 C105.73546875 5.87613281 106.52953125 5.76398438 107.34765625 5.6484375 C110.53710857 6.07092092 111.43540942 7.43383558 113.44140625 9.92578125 C115.14313572 12.52772868 116.66954933 15.21556252 118.19140625 17.92578125 C118.65820801 18.7446582 119.12500977 19.56353516 119.60595703 20.40722656 C120.64841218 22.23681429 121.68813505 24.06796064 122.72558594 25.90039062 C124.56182444 29.13810655 126.41052694 32.36846793 128.26171875 35.59765625 C138.91932631 54.19203651 149.52139222 72.81834401 159.91113281 91.56396484 C165.27487262 101.24106369 170.69459181 110.8861054 176.19140625 120.48828125 C177.21162495 122.27316091 178.23181051 124.05805959 179.25146484 125.84326172 C180.10525332 127.33747914 180.95983879 128.83124127 181.81494141 130.32470703 C189.09989338 143.06322515 196.15757211 155.90889248 203.05810547 168.85839844 C206.90027355 176.06627956 210.79449587 183.23976146 214.78564453 190.36621094 C218.78878205 197.51911045 222.69731811 204.72305573 226.59643555 211.93310547 C227.32600464 213.27719482 227.32600464 213.27719482 228.0703125 214.6484375 C228.5041626 215.45031494 228.9380127 216.25219238 229.38500977 217.07836914 C230.30760683 218.87959154 230.30760683 218.87959154 231.44140625 219.92578125 C231.36701063 224.26198318 230.82489649 226.96349259 227.74609375 229.98828125 C226.6174872 230.98426697 225.47342803 231.96295163 224.31640625 232.92578125 C223.1135526 233.97538244 221.91171879 235.02615359 220.7109375 236.078125 C219.84976318 236.8203833 219.84976318 236.8203833 218.97119141 237.57763672 C217.21326844 239.12683088 215.60145415 240.77514849 214.00390625 242.48828125 C209.80160967 246.7628532 204.98313165 250.31248656 200.24609375 253.96484375 C197.71543139 255.91899811 195.22515727 257.91100883 192.76171875 259.94921875 C185.02839701 266.32578147 177.10240491 271.89319864 168.51171875 277.0625 C165.66316499 278.62480697 165.66316499 278.62480697 164.44140625 279.92578125 C158.57150724 279.69473971 155.41798115 277.81828605 151.25390625 273.92578125 C150.11443677 272.91129538 148.97245936 271.89962013 147.828125 270.890625 C147.26013184 270.38644043 146.69213867 269.88225586 146.10693359 269.36279297 C143.68669555 267.27461925 141.14068617 265.38164502 138.56640625 263.48828125 C133.95832778 260.08838145 129.46255505 256.57973394 125.00390625 252.98828125 C108.19824234 239.4650571 90.8247817 226.69176022 73.44140625 213.92578125 C72.42949219 213.18199219 71.41757812 212.43820312 70.375 211.671875 C60.43801301 204.40497917 50.34823304 197.34682124 40.25390625 190.30078125 C36.35764737 187.58000386 32.49170764 184.81868547 28.62890625 182.05078125 C23.00494476 178.02354969 17.3423132 174.05910488 11.64453125 170.13671875 C9.52320277 168.6724847 7.40848392 167.19862449 5.30078125 165.71484375 C-1.10908563 161.21530666 -7.61310322 156.97198241 -14.27587891 152.86083984 C-19.34309008 149.72125478 -24.30418278 146.44590744 -29.24609375 143.11328125 C-45.4096196 132.2621455 -62.10162663 122.36573756 -78.9921875 112.6953125 C-84.317746 109.64572787 -89.61855977 106.55627859 -94.91088867 103.44946289 C-110.38035361 94.37219427 -125.9431877 85.50871497 -142.07421875 77.65234375 C-144.21386602 76.59211495 -146.33458877 75.49113923 -148.41796875 74.32421875 C-149.248125 73.86273438 -150.07828125 73.40125 -150.93359375 72.92578125 C-151.60132813 72.53390625 -152.2690625 72.14203125 -152.95703125 71.73828125 C-161.25010821 69.14825121 -169.40285816 71.62403828 -177.43359375 74.05078125 C-179.64306172 74.71019674 -181.85269953 75.3690434 -184.0625 76.02734375 C-185.15449707 76.35508789 -186.24649414 76.68283203 -187.37158203 77.02050781 C-190.3055787 77.8539121 -193.2310505 78.5530549 -196.2109375 79.19921875 C-208.54459597 82.01928938 -214.41234027 86.45378374 -221.30859375 97.01367188 C-240.57575458 126.48640695 -270.13051337 148.34966542 -303.55859375 158.92578125 C-312.70120609 160.68397593 -324.56193463 161.56038333 -332.99609375 157.11328125 C-335.91887646 154.61822284 -337.29977385 152.72860325 -337.84912109 148.90209961 C-338.26329985 129.41565716 -332.60348872 118.65998165 -321.55859375 102.92578125 C-321.04135742 102.18424805 -320.52412109 101.44271484 -319.99121094 100.67871094 C-317.00160244 96.39506439 -313.98537404 92.1312014 -310.95068359 87.87939453 C-309.66459872 86.07454516 -308.38562768 84.26493402 -307.109375 82.453125 C-300.34886 72.88212151 -293.30245539 63.52944028 -286.24755859 54.17431641 C-284.81647909 52.26910649 -283.39590445 50.35720299 -281.984375 48.4375 C-276.48538756 40.98375581 -270.60653993 33.93401201 -264.55859375 26.92578125 C-263.93082031 26.18457031 -263.30304688 25.44335938 -262.65625 24.6796875 C-260.98890675 22.72987669 -259.2877062 20.82100931 -257.55859375 18.92578125 C-256.82382812 18.11367188 -256.0890625 17.3015625 -255.33203125 16.46484375 C-225.70961982 -14.8502769 -164.57360174 -14.80640315 -124.38037109 -15.97900391 C-81.12283391 -17.05671181 -41.68274808 -10.91354383 0 0 Z " fill="#3FA347" transform="translate(771.55859375,396.07421875)"/>
<path d="M0 0 C2.64113961 1.2929941 5.05360602 2.87366898 7.5 4.5 C8.94626986 5.43412769 10.39288826 6.36771596 11.83984375 7.30078125 C12.55124512 7.76436035 13.26264648 8.22793945 13.99560547 8.70556641 C16.65198287 10.42104911 19.35491655 12.0542972 22.0625 13.6875 C29.17048775 18.04741814 36.13842093 22.61988564 43.09838867 27.21166992 C47.90210954 30.37177438 52.72200604 33.4636556 57.671875 36.390625 C58.55085449 36.9175293 59.42983398 37.44443359 60.33544922 37.98730469 C61.98702918 38.97107602 63.64977474 39.93641886 65.32470703 40.87988281 C68.8863035 43.01824443 70.67070953 44.25677095 72.3828125 48.12109375 C71.7959674 54.06739158 68.97484141 58.45861325 66 63.5625 C64.78472782 65.71777515 63.57117357 67.87401991 62.359375 70.03125 C61.77349609 71.06378906 61.18761719 72.09632813 60.58398438 73.16015625 C58.6781545 76.57702017 56.94759994 80.03795917 55.25 83.5625 C52.53346499 89.10342252 49.4721531 94.35122694 46.26245117 99.61425781 C43.59526636 103.98773587 41.08130873 108.41638375 38.65625 112.9296875 C32.64621136 124.07093837 26.4342024 135.09844855 20 146 C16.62651267 151.728984 13.27060492 157.45456908 10.125 163.3125 C7.70873428 167.78969824 5.13498335 172.14984829 2.5 176.5 C-1.70034963 183.43898806 -5.60687297 190.50382195 -9.41796875 197.6640625 C-12.74991585 203.86344933 -16.34793715 209.84545667 -20.06640625 215.8203125 C-22.30911216 219.50831777 -24.35013802 223.27785215 -26.38671875 227.08203125 C-28.61029954 231.10385898 -31.00630921 235.0170363 -33.39331055 238.94287109 C-36.92077543 244.78392277 -40.22222024 250.74141789 -43.46191406 256.74633789 C-45.70690943 260.86014775 -48.12264935 264.67748086 -50.89697266 268.45361328 C-52.31559595 270.44244904 -53.44565414 272.51646959 -54.5625 274.6875 C-57.37761423 279.95957142 -60.40918509 285.07455362 -63.5 290.1875 C-68.85855579 299.05310232 -74.09595558 307.98471402 -79.27929688 316.95385742 C-87.18979774 330.59489887 -87.18979774 330.59489887 -90 332 C-96.75799604 332.84041746 -100.71199011 330.36119861 -106.25 326.9375 C-107.517229 326.17759766 -107.517229 326.17759766 -108.81005859 325.40234375 C-111.21758419 323.95181536 -113.61111764 322.48097971 -116 321 C-117.01835937 320.37222656 -118.03671875 319.74445313 -119.0859375 319.09765625 C-121.7427846 317.4258863 -124.37282898 315.718041 -127 314 C-129.08405897 312.64931875 -131.16948487 311.30076131 -133.25488281 309.95214844 C-134.74676804 308.98719266 -136.23830698 308.02170126 -137.72949219 307.05566406 C-144.45824325 302.69716594 -151.20431939 298.36613856 -158.0078125 294.125 C-158.99523437 293.50625 -159.98265625 292.8875 -161 292.25 C-161.886875 291.69828125 -162.77375 291.1465625 -163.6875 290.578125 C-164.450625 290.05734375 -165.21375 289.5365625 -166 289 C-166.61875 288.58234375 -167.2375 288.1646875 -167.875 287.734375 C-169 286 -169 286 -168.91796875 282.69921875 C-167.93560134 278.74048711 -166.56448217 276.19690749 -164.3125 272.8125 C-161.66638406 268.72763927 -159.233729 264.6426819 -157.125 260.25 C-153.68664251 253.1999991 -149.6764151 246.5371187 -145.66357422 239.8046875 C-143.69212827 236.48094652 -141.73724296 233.14763034 -139.78515625 229.8125 C-139.41343796 229.17747055 -139.04171967 228.5424411 -138.65873718 227.88816833 C-137.15473819 225.31827362 -135.65111722 222.74815784 -134.14755249 220.17800903 C-130.67840155 214.24963141 -127.20582239 208.32452106 -123.66015625 202.44140625 C-121.76199819 199.28842991 -119.92123246 196.12230842 -118.1875 192.875 C-112.25158159 181.89740543 -106.07188404 171.06983487 -99.71606445 160.33056641 C-97.06215434 155.83604942 -94.47468666 151.31124804 -91.9375 146.75 C-87.60454065 138.96815369 -83.08059758 131.30007522 -78.5625 123.625 C-71.72504543 112.0055129 -65.0232992 100.3241303 -58.62841797 88.45410156 C-54.56207824 80.93370238 -50.24275132 73.58645352 -45.85546875 66.25 C-42.57540956 60.73887429 -39.43800416 55.17311578 -36.38867188 49.53125 C-34.52104463 46.12696743 -32.52799021 42.81034852 -30.5 39.5 C-27.92552787 35.25471741 -25.41034835 31.00144253 -23.0625 26.625 C-20.42045727 21.73205494 -17.70685558 16.884305 -14.9375 12.0625 C-14.31983765 10.96059326 -14.31983765 10.96059326 -13.68969727 9.83642578 C-10.53778171 4.39706264 -7.09921087 -1.41984217 0 0 Z " fill="#050505" transform="translate(298,304)"/>
<path d="M0 0 C2.78357792 1.64467198 3.72142788 2.97601317 5.27124023 5.79418945 C5.7763916 6.69347168 6.28154297 7.59275391 6.80200195 8.51928711 C7.31907715 9.46980957 7.83615234 10.42033203 8.36889648 11.3996582 C9.43201928 13.27894889 10.49583506 15.15784771 11.56030273 17.03637695 C12.6853917 19.05252841 13.80903352 21.06948795 14.93139648 23.0871582 C16.17060166 25.30742139 17.41019354 27.52746878 18.65014648 29.74731445 C19.27147461 30.85993652 19.89280273 31.97255859 20.53295898 33.11889648 C23.31799417 38.09566548 26.12285234 43.06112781 28.93139648 48.0246582 C29.7302124 49.43678589 29.7302124 49.43678589 30.54516602 50.87744141 C32.15265914 53.71841662 33.7606786 56.5590932 35.36889648 59.3996582 C42.06059658 71.21908222 48.73832625 83.04580748 55.36889648 94.8996582 C63.44491931 109.33573054 71.55172738 123.75428089 79.78295898 138.10253906 C86.86334615 150.44707103 93.77673181 162.88221224 100.66918945 175.33227539 C102.15027369 178.00511973 103.63497442 180.67587668 105.12280273 183.3449707 C109.62479055 191.42253493 114.07677048 199.5253383 118.49389648 207.6496582 C122.45987377 214.94374149 126.49568006 222.18747415 130.64233398 229.38012695 C132.75848292 233.08099376 134.78825313 236.82468335 136.81420898 240.57543945 C138.57564863 243.77524062 140.40947115 246.92866323 142.24389648 250.0871582 C145.69572967 256.04865552 148.8195067 262.14525779 151.84301758 268.33398438 C153.27908682 271.58454158 153.27908682 271.58454158 155.36889648 274.3996582 C155.99389648 277.5246582 155.99389648 277.5246582 155.36889648 281.3996582 C149.15222915 287.87433531 140.46932267 292.14912373 132.80639648 296.7121582 C130.91837522 297.84546112 129.03165376 298.98090602 127.14501953 300.11651611 C125.90891075 300.86043753 124.67242443 301.603732 123.43554688 302.34637451 C118.84025738 305.10709949 114.28041395 307.91870616 109.74389648 310.7746582 C109.14109863 311.15001709 108.53830078 311.52537598 107.91723633 311.91210938 C104.49045838 314.0479525 101.09957273 316.22997903 97.72436523 318.4465332 C96.12691216 319.47289116 94.52925949 320.49893854 92.93139648 321.5246582 C92.20936035 322.01111816 91.48732422 322.49757813 90.7434082 322.9987793 C85.70497247 326.19725209 81.34988346 327.51825395 75.36889648 326.3996582 C72.08576975 324.21090705 71.35293213 322.90001759 69.57202148 319.46606445 C69.04930664 318.47622559 68.5265918 317.48638672 67.98803711 316.46655273 C67.4537207 315.45447754 66.9194043 314.44240234 66.36889648 313.3996582 C65.35029484 311.5712747 64.32436438 309.74695285 63.29077148 307.92700195 C62.77482422 307.01700439 62.25887695 306.10700684 61.72729492 305.16943359 C61.19652344 304.23478271 60.66575195 303.30013184 60.11889648 302.3371582 C56.0905205 295.22768426 52.0793622 288.1097024 48.11889648 280.9621582 C42.55288915 270.9187842 36.92382512 260.91186475 31.26733398 250.91918945 C25.7766873 241.21826264 20.30131724 231.5102645 14.89868164 221.76000977 C12.21751289 216.92232004 9.51992544 212.094271 6.80639648 207.2746582 C6.43361572 206.61240234 6.06083496 205.95014648 5.67675781 205.26782227 C3.91046554 202.13168161 2.14149541 198.99708204 0.36889648 195.86450195 C-4.60030543 187.07201065 -9.49939732 178.24096576 -14.38110352 169.3996582 C-14.72571625 168.77560089 -15.07032898 168.15154358 -15.42538452 167.50857544 C-20.16820183 158.91506358 -24.85515101 150.29331745 -29.50610352 141.6496582 C-33.04865406 135.06956583 -36.66039991 128.55730946 -40.50610352 122.1496582 C-45.67758151 113.53017072 -50.36813174 104.65593674 -55.08789062 95.78466797 C-58.68865578 89.01790391 -62.32659099 82.2769511 -66.06860352 75.5871582 C-66.45967285 74.88292725 -66.85074219 74.17869629 -67.25366211 73.453125 C-69.14998307 70.03869779 -71.06778639 66.63917695 -73.01782227 63.25512695 C-73.76444165 61.92859975 -74.51055938 60.60179002 -75.25610352 59.2746582 C-75.90836914 58.13770508 -76.56063477 57.00075195 -77.23266602 55.8293457 C-78.85907456 51.84055603 -79.98109846 48.61114878 -78.63110352 44.3996582 C-76.31941753 41.81950107 -73.59026862 40.16517424 -70.63110352 38.3996582 C-69.91148437 37.94445801 -69.19186523 37.48925781 -68.45043945 37.02026367 C-66.15632565 35.58835007 -63.83688689 34.2085103 -61.50610352 32.8371582 C-60.64428467 32.32540039 -59.78246582 31.81364258 -58.89453125 31.28637695 C-57.06917631 30.20341955 -55.24257278 29.12256423 -53.41479492 28.04370117 C-50.66445909 26.41935794 -47.91877789 24.7873998 -45.17407227 23.15356445 C-35.84349751 17.60763389 -26.47884718 12.12187604 -17.06860352 6.7121582 C-16.19405518 6.2068457 -15.31950684 5.7015332 -14.41845703 5.1809082 C-13.60046631 4.71297852 -12.78247559 4.24504883 -11.93969727 3.76293945 C-10.86933228 3.14866089 -10.86933228 3.14866089 -9.77734375 2.52197266 C-3.44938626 -0.78705027 -3.44938626 -0.78705027 0 0 Z " fill="#41A549" transform="translate(968.631103515625,309.600341796875)"/>
<path d="M0 0 C10.16462203 5.68529707 18.26636109 13.65479085 22.6875 24.625 C25.03132047 33.00638334 25.39026024 42.32957812 21.25 50.125 C20.11830388 51.91838387 18.95061618 53.68950612 17.75 55.4375 C17.18152344 56.32050781 16.61304688 57.20351563 16.02734375 58.11328125 C14.38400077 60.63586505 12.70457573 63.12930338 11.00146484 65.61181641 C9.58477281 67.67853959 8.17712922 69.7512917 6.76953125 71.82421875 C-2.84239139 85.95485321 -12.56812208 99.98346183 -22.87988281 113.61425781 C-26.1809362 117.98451349 -29.39732127 122.40551271 -32.5625 126.875 C-50.2334305 151.74956595 -50.2334305 151.74956595 -63.25 154.4375 C-73.05935749 155.68144026 -81.59832664 152.24767558 -89.5625 146.625 C-96.99897003 140.57996927 -103.3495346 133.04639516 -105.25 123.4375 C-107.0804415 103.24262902 -94.03594698 89.38431402 -82.71875 74.1328125 C-79.72844132 70.09720446 -76.78464122 66.03155122 -73.875 61.9375 C-69.70732183 56.07408311 -65.48983361 50.24892163 -61.25 44.4375 C-59.9790231 42.68760427 -58.7081927 40.93760212 -57.4375 39.1875 C-56.78007812 38.28515625 -56.12265625 37.3828125 -55.4453125 36.453125 C-53.83207568 34.23707727 -52.22339391 32.01800254 -50.6171875 29.796875 C-21.60259151 -10.21412038 -21.60259151 -10.21412038 0 0 Z " fill="#41A449" transform="translate(436.25,684.5625)"/>
<path d="M0 0 C9.3730664 7.18720554 17.94811258 15.8938642 20 28 C21.60026282 42.48042699 15.13500972 51.75100338 7.18652344 63.26416016 C5.89952145 65.1469964 4.63904125 67.04571745 3.3828125 68.94921875 C-3.67735148 79.64381114 -10.94803697 90.18285815 -18.29296875 100.68359375 C-20.46287621 103.78681824 -22.61939593 106.89687593 -24.73828125 110.03515625 C-37.7975556 129.36733772 -37.7975556 129.36733772 -47.7890625 132.57421875 C-56.83714331 134.31669368 -66.02723476 133.73780938 -74 129 C-81.28000503 124.06774727 -86.55477478 119.14061655 -90 111 C-90.31582031 110.319375 -90.63164062 109.63875 -90.95703125 108.9375 C-94.70201858 100.18209583 -93.01347736 91.76751337 -90 83 C-86.90612707 76.5712983 -82.56748072 70.89860901 -78.3359375 65.18359375 C-75.5048414 61.3251601 -72.75156739 57.41534508 -70 53.5 C-66.05340947 47.8912013 -62.07660763 42.30923601 -58.01171875 36.78515625 C-56.22751375 34.31498506 -54.47969948 31.82460387 -52.73828125 29.32421875 C-49.06878972 24.07478697 -45.3150615 18.89443344 -41.5 13.75 C-40.87480469 12.89148438 -40.24960937 12.03296875 -39.60546875 11.1484375 C-29.55412069 -2.37822138 -16.05586867 -9.71992049 0 0 Z " fill="#43A54B" transform="translate(498,756)"/>
<path d="M0 0 C7.67474522 6.32996685 14.1422834 15.81113727 15.3125 25.875 C16.97057997 44.37917242 2.45802009 60.5743181 -7.6875 74.875 C-8.53386948 76.07551003 -9.38022321 77.27603118 -10.2265625 78.4765625 C-11.92202918 80.87537894 -13.63003138 83.26435359 -15.3515625 85.64453125 C-16.75769886 87.58913789 -18.15218098 89.54236098 -19.5234375 91.51171875 C-24.60228384 98.53387953 -31.89926621 105.29311792 -40.6875 106.875 C-51.26342975 108.3393595 -59.83996576 104.931515 -68.32470703 98.66601562 C-75.80550054 92.65181794 -80.60543211 84.22490738 -82.6875 74.875 C-83.57085676 59.47011985 -73.77620358 45.77049628 -64.98046875 33.98046875 C-62.7216091 30.92119546 -60.53319896 27.82185563 -58.35498047 24.70507812 C-39.13105343 -2.77680048 -39.13105343 -2.77680048 -30.5 -6.5 C-18.76193488 -8.42427297 -9.73184205 -6.95366416 0 0 Z " fill="#44A74D" transform="translate(562.6875,829.125)"/>
<path d="M0 0 C0.67546875 0.39058594 1.3509375 0.78117188 2.046875 1.18359375 C2.72234375 1.52261719 3.3978125 1.86164062 4.09375 2.2109375 C13.87725253 7.53877512 19.54096712 17.41764247 23.296875 27.55859375 C25.48768495 38.14750848 23.49870363 45.95639587 17.6484375 54.94921875 C14.8714615 59.09278545 11.97295345 63.1445284 9.046875 67.18359375 C8.59989258 67.80782227 8.15291016 68.43205078 7.69238281 69.07519531 C2.39847052 76.45470928 2.39847052 76.45470928 0.046875 79.18359375 C-0.613125 79.18359375 -1.273125 79.18359375 -1.953125 79.18359375 C-2.19289063 79.77785156 -2.43265625 80.37210938 -2.6796875 80.984375 C-4.21448677 83.63496393 -5.76657582 84.71587343 -8.328125 86.37109375 C-9.09898437 86.88027344 -9.86984375 87.38945313 -10.6640625 87.9140625 C-16.63437986 91.22524533 -24.01346511 91.11651472 -30.54296875 89.5703125 C-42.24705892 85.37311113 -51.75447317 76.23317258 -57.19140625 65.17578125 C-60.6478492 56.13585355 -60.13954501 44.92009465 -56.5 36.05859375 C-53.25450282 30.02655858 -49.07234566 24.63761413 -44.953125 19.18359375 C-44.293125 18.19359375 -43.633125 17.20359375 -42.953125 16.18359375 C-42.293125 16.18359375 -41.633125 16.18359375 -40.953125 16.18359375 C-40.705625 15.62671875 -40.458125 15.06984375 -40.203125 14.49609375 C-38.72387682 11.75948462 -37.01845061 9.50708506 -34.953125 7.18359375 C-34.293125 7.18359375 -33.633125 7.18359375 -32.953125 7.18359375 C-32.72625 6.60609375 -32.499375 6.02859375 -32.265625 5.43359375 C-25.99726541 -5.31216555 -9.87143844 -5.20592283 0 0 Z " fill="#43A64C" transform="translate(331.953125,677.81640625)"/>
<path d="M0 0 C-12.32127238 4.34987449 -24.95737258 6.97956575 -38 4 C-38.66 3.34 -39.32 2.68 -40 2 C-39.10075806 2.00785522 -39.10075806 2.00785522 -38.18334961 2.01586914 C-35.43474398 2.03681443 -32.68615522 2.04971556 -29.9375 2.0625 C-28.52307617 2.07506836 -28.52307617 2.07506836 -27.08007812 2.08789062 C-21.94528555 2.10578189 -17.04834453 1.97952954 -12 1 C-11.67 0.67 -11.34 0.34 -11 0 C-6.97279717 -0.75984959 -3.92759816 -1.16180608 0 0 Z " fill="#A3D8AC" transform="translate(480,551)"/>
<path d="M0 0 C-4.37824185 2.9188279 -7.20763584 4.21546429 -12.5 4.5 C-17.85681632 4.86061799 -23.03305366 5.61432429 -28.30859375 6.59765625 C-30.91860356 6.98783188 -33.36580673 7.07171125 -36 7 C-30.92826186 4.17244029 -25.32837426 3.48446869 -19.6875 2.375 C-18.57181641 2.14554687 -17.45613281 1.91609375 -16.30664062 1.6796875 C-10.78197141 0.57933844 -5.6354358 -0.3090138 0 0 Z " fill="#ABDAB1" transform="translate(590,386)"/>
<path d="M0 0 C-2.85506049 0.95168683 -4.90937282 1.1900946 -7.88671875 1.31640625 C-8.82451172 1.35830078 -9.76230469 1.40019531 -10.72851562 1.44335938 C-11.70498047 1.48267578 -12.68144531 1.52199219 -13.6875 1.5625 C-14.67556641 1.60568359 -15.66363281 1.64886719 -16.68164062 1.69335938 C-19.12095546 1.79941654 -21.56037113 1.90147714 -24 2 C-18.11367573 -4.19880816 -7.41038806 -3.20449213 0 0 Z " fill="#86C98E" transform="translate(494,754)"/>
<path d="M0 0 C0.66 0.33 1.32 0.66 2 1 C0.60259439 5.47011 -1.50358849 7.74805793 -5 10.8125 C-6.3303125 11.99779297 -6.3303125 11.99779297 -7.6875 13.20703125 C-10 15 -10 15 -12 15 C-10.4722133 11.56247993 -8.49818944 8.81046312 -6 6 C-5.34 6 -4.68 6 -4 6 C-3.566875 5.071875 -3.566875 5.071875 -3.125 4.125 C-2 2 -2 2 0 0 Z " fill="#78C17E" transform="translate(303,679)"/>
<path d="M0 0 C1.14982602 4.09003859 1.11094256 8.03177051 1.0625 12.25 C1.05798828 12.99507812 1.05347656 13.74015625 1.04882812 14.5078125 C1.03709246 16.3385764 1.0191585 18.16929873 1 20 C1.33 20 1.66 20 2 20 C1.67 22.64 1.34 25.28 1 28 C-2.20210032 23.19684953 -2.15663539 18.74776064 -2.1875 13.0625 C-2.20167969 11.87785156 -2.21585937 10.69320312 -2.23046875 9.47265625 C-1.99882699 5.98232534 -1.25530126 3.2498906 0 0 Z " fill="#9DD2A0" transform="translate(275,716)"/>
<path d="M0 0 C5.01571532 5.47168944 5.333862 12.65196355 5.203125 19.72265625 C4.96185611 22.42765168 4.27769897 24.60431443 3 27 C1.46663455 22.23349188 2.02801191 17.35235459 2.16015625 12.41015625 C2.00270099 9.05751137 1.31040414 7.0370543 0 4 C0 2.68 0 1.36 0 0 Z " fill="#97CE9D" transform="translate(573,843)"/>
<path d="M0 0 C2.77770708 3.48746819 4.98481471 7.26133864 7.1875 11.125 C7.55552734 11.75792969 7.92355469 12.39085937 8.30273438 13.04296875 C11 17.75692834 11 17.75692834 11 20 C9.125 19.75 9.125 19.75 7 19 C4.88896342 16.04454879 4.80214217 13.56144099 5 10 C4.34 10 3.68 10 3 10 C3 9.34 3 8.68 3 8 C2.34 8 1.68 8 1 8 C0.67 5.36 0.34 2.72 0 0 Z " fill="#8AC88F" transform="translate(953,527)"/>
<path d="M0 0 C0 3.20395416 -0.74335022 5.09399739 -2 8 C-2.66 8 -3.32 8 -4 8 C-4.04125 8.721875 -4.0825 9.44375 -4.125 10.1875 C-5.15290596 13.49148344 -6.72392226 14.73360707 -9.43359375 16.796875 C-11.46934808 18.36049678 -13.22195497 20.15356862 -15 22 C-13.72608319 17.79607451 -11.59336821 15.24201217 -8.73046875 12.046875 C-5.52301693 8.25295908 -2.79140255 4.10451795 0 0 Z " fill="#92CB98" transform="translate(378,725)"/>
<path d="M0 0 C1.25217274 3.75651823 0.57285545 6.0848293 0 10 C-0.11928049 12.98066434 -0.09572338 15.95506271 -0.0625 18.9375 C-0.05798828 19.71673828 -0.05347656 20.49597656 -0.04882812 21.29882812 C-0.03716908 23.19925268 -0.01923877 25.09963706 0 27 C-3.37670703 23.62329297 -3.17742782 19.93897652 -3.25 15.3125 C-3.22249696 9.70875491 -2.17980386 5.1381091 0 0 Z " fill="#9ED2A2" transform="translate(334,787)"/>
<path d="M0 0 C0.66 0.33 1.32 0.66 2 1 C-0.63482263 6.26964527 -4.79943911 9.97903554 -9 14 C-9.66 13.01 -10.32 12.02 -11 11 C-7.37 7.37 -3.74 3.74 0 0 Z " fill="#66B56E" transform="translate(524,405)"/>
<path d="M0 0 C1.01964844 -0.01417969 2.03929687 -0.02835938 3.08984375 -0.04296875 C6.13409667 0.19305086 8.30987643 0.90497005 11.0625 2.1875 C8.23838235 3.12887255 6.53331968 3.30475382 3.61328125 3.28515625 C2.76572266 3.28193359 1.91816406 3.27871094 1.04492188 3.27539062 C0.16384766 3.26701172 -0.71722656 3.25863281 -1.625 3.25 C-2.51767578 3.24548828 -3.41035156 3.24097656 -4.33007812 3.23632812 C-6.53261987 3.22454983 -8.73502599 3.20810164 -10.9375 3.1875 C-9.9375 1.1875 -9.9375 1.1875 -8.24609375 0.57421875 C-5.46964631 0.10912857 -2.81548379 0.0177521 0 0 Z " fill="#A2D4A7" transform="translate(423.9375,681.8125)"/>
<path d="M0 0 C3.12374122 2.55578827 3.77154197 5.23784729 5 9 C6.51553153 11.30166675 6.51553153 11.30166675 8 13 C7.01 14.485 7.01 14.485 6 16 C4.79994469 13.9021477 3.61497017 11.7979751 2.4375 9.6875 C1.92413086 8.79514648 1.92413086 8.79514648 1.40039062 7.88476562 C0.52233738 6.29717441 -0.24586268 4.65006069 -1 3 C-0.67 2.01 -0.34 1.02 0 0 Z " fill="#7FC084" transform="translate(936,441)"/>
<path d="M0 0 C1 2 1 2 0.3125 4.3125 C-1.14191061 7.29057887 -2.76171645 9.55823613 -5 12 C-5.99 12.33 -6.98 12.66 -8 13 C-6.40956621 7.91061189 -3.2553049 4.12543357 0 0 Z " fill="#83C58B" transform="translate(346,769)"/>
<path d="M0 0 C3.09592835 3.5087188 4.74194623 6.49197399 6 11 C4.125 10.75 4.125 10.75 2 10 C-0.35535899 6.82026536 -0.17494335 3.84875379 0 0 Z " fill="#7BC583" transform="translate(966,551)"/>
<path d="M0 0 C0.99 0 1.98 0 3 0 C1.55575365 3.23861303 -0.25772247 5.61969163 -2.625 8.25 C-3.25664063 8.95640625 -3.88828125 9.6628125 -4.5390625 10.390625 C-5.02117188 10.92171875 -5.50328125 11.4528125 -6 12 C-6.33 10.68 -6.66 9.36 -7 8 C-6.195625 7.5875 -5.39125 7.175 -4.5625 6.75 C-1.86197323 5.27587896 -1.86197323 5.27587896 -1.25 2.875 C-1.1675 2.25625 -1.085 1.6375 -1 1 C-0.67 0.67 -0.34 0.34 0 0 Z " fill="#95D39D" transform="translate(541,500)"/>
<path d="M0 0 C-4.27320453 2.84880302 -6.78168857 4.28990619 -12 4 C-12.33 3.01 -12.66 2.02 -13 1 C-8.60563789 0.14256349 -4.47427924 -0.08948558 0 0 Z " fill="#82C588" transform="translate(590,386)"/>
<path d="M0 0 C0 0.99 0 1.98 0 3 C-0.61875 3.28875 -1.2375 3.5775 -1.875 3.875 C-4.13325765 4.93720042 -4.13325765 4.93720042 -6 7 C-8.625 7.125 -8.625 7.125 -11 7 C-4.48275862 0 -4.48275862 0 0 0 Z " fill="#88C88F" transform="translate(905,345)"/>
<path d="M0 0 C0 0.66 0 1.32 0 2 C-1.175625 2.0928125 -1.175625 2.0928125 -2.375 2.1875 C-3.24125 2.455625 -4.1075 2.72375 -5 3 C-6.37466625 5.47636012 -6.37466625 5.47636012 -7 8 C-8.65 7.67 -10.3 7.34 -12 7 C-9.20232475 3.70861735 -4.40323273 0 0 0 Z " fill="#8BCE92" transform="translate(930,330)"/>
<path d="M0 0 C0.99 0.33 1.98 0.66 3 1 C0.34345343 4.73884332 -1.58110387 6.64978174 -6 8 C-6.33 7.01 -6.66 6.02 -7 5 C-6.01 4.67 -5.02 4.34 -4 4 C-3.34 4.33 -2.68 4.66 -2 5 C-2 4.01 -2 3.02 -2 2 C-1.34 2 -0.68 2 0 2 C0 1.34 0 0.68 0 0 Z " fill="#71BD7B" transform="translate(386,828)"/>
<path d="M0 0 C2.5 1.25 2.5 1.25 5 3 C5 4.32 5 5.64 5 7 C5.66 7.33 6.32 7.66 7 8 C7 9.65 7 11.3 7 13 C0 4.79310345 0 4.79310345 0 0 Z " fill="#9ACF9E" transform="translate(963,493)"/>
<path d="M0 0 C5.625 -0.25 5.625 -0.25 9 2 C9 2.66 9 3.32 9 4 C9.66 4 10.32 4 11 4 C11 4.66 11 5.32 11 6 C6.49197399 4.74194623 3.5087188 3.09592835 0 0 Z " fill="#7FBC83" transform="translate(665,492)"/>
<path d="M0 0 C0 3.60573896 -0.81707462 4.41336566 -3 7.1875 C-3.556875 7.90292969 -4.11375 8.61835937 -4.6875 9.35546875 C-5.120625 9.89816406 -5.55375 10.44085937 -6 11 C-6.66 10.67 -7.32 10.34 -8 10 C-6.02677065 5.43041625 -4.07763771 2.86536704 0 0 Z " fill="#96D29F" transform="translate(338,746)"/>
<path d="M0 0 C0.33 0.66 0.66 1.32 1 2 C0.0625 4.625 0.0625 4.625 -1 7 C-1.66 7 -2.32 7 -3 7 C-3 7.99 -3 8.98 -3 10 C-3.99 10 -4.98 10 -6 10 C-4.6302836 6.00499382 -2.74277578 3.19990508 0 0 Z " fill="#8CC994" transform="translate(470,471)"/>
<path d="M0 0 C3.10468986 2.54020079 3.98485936 5.17370067 5 9 C5 10.32 5 11.64 5 13 C4.34 13 3.68 13 3 13 C2.49689942 11.2092015 1.99761372 9.41733089 1.5 7.625 C1.2215625 6.62726562 0.943125 5.62953125 0.65625 4.6015625 C0 2 0 2 0 0 Z " fill="#99D4A0" transform="translate(350,696)"/>
<path d="M0 0 C-1.76371818 1.03307771 -3.53625033 2.05112049 -5.3125 3.0625 C-6.79169922 3.91521484 -6.79169922 3.91521484 -8.30078125 4.78515625 C-11 6 -11 6 -14 5 C-13.030625 4.54625 -12.06125 4.0925 -11.0625 3.625 C-7.92920418 2.34213779 -7.92920418 2.34213779 -7 0 C-2.52459016 -1.26229508 -2.52459016 -1.26229508 0 0 Z " fill="#9DD7A6" transform="translate(498,542)"/>
<path d="M0 0 C0.33 0.66 0.66 1.32 1 2 C0.36328125 3.875 0.36328125 3.875 -0.6875 6 C-1.18830078 7.051875 -1.18830078 7.051875 -1.69921875 8.125 C-3.21910635 10.31582897 -4.55687434 11.01246289 -7 12 C-5.44298069 7.32894208 -2.91552627 3.91294315 0 0 Z " fill="#9DD3A2" transform="translate(448,502)"/>
<path d="M0 0 C0 3.33156142 -0.45664761 5.06028115 -2 8 C-4.625 9.8125 -4.625 9.8125 -7 11 C-5.22054913 6.95579349 -2.60470327 3.53921513 0 0 Z " fill="#99D2A0" transform="translate(499,862)"/>
<path d="M0 0 C0.66 0.33 1.32 0.66 2 1 C0.66511872 4.59391114 -0.96022723 7.75490696 -3 11 C-4.24546405 8.50907189 -3.7767578 7.58919267 -3 5 C-2.34 5 -1.68 5 -1 5 C-0.67 3.35 -0.34 1.7 0 0 Z " fill="#81C48A" transform="translate(511,804)"/>
<path d="M0 0 C-2.97 1.65 -5.94 3.3 -9 5 C-9 4.01 -9 3.02 -9 2 C-3.375 -1.125 -3.375 -1.125 0 0 Z " fill="#32993C" transform="translate(313,678)"/>
<path d="M0 0 C1.98 0.99 1.98 0.99 4 2 C4 2.99 4 3.98 4 5 C4.66 5 5.32 5 6 5 C6 6.98 6 8.96 6 11 C0 3.28571429 0 3.28571429 0 0 Z " fill="#8ECB96" transform="translate(907,392)"/>
<path d="M0 0 C0 2.62113708 -0.31292445 4.50935112 -1 7 C-2.32 7.33 -3.64 7.66 -5 8 C-3.8141763 4.62496331 -2.72426311 2.35277269 0 0 Z " fill="#88C78F" transform="translate(384,717)"/>
<path d="M0 0 C3.0916909 2.52956528 3.90931332 5.22454612 5 9 C4.01 8.67 3.02 8.34 2 8 C2 7.01 2 6.02 2 5 C1.34 5 0.68 5 0 5 C-0.5625 3.0625 -0.5625 3.0625 -1 1 C-0.67 0.67 -0.34 0.34 0 0 Z " fill="#7EC084" transform="translate(944,512)"/>
<path d="M0 0 C0.66 1.32 1.32 2.64 2 4 C-0.475 5.485 -0.475 5.485 -3 7 C-3 3.48283697 -2.17554415 2.62878252 0 0 Z " fill="#73BE7A" transform="translate(448,782)"/>
<path d="M0 0 C1.5 1.0625 1.5 1.0625 3 3 C3.1875 6.6875 3.1875 6.6875 3 10 C0.64551835 7.44931155 0.01672076 6.28982642 -0.1875 2.75 C-0.125625 1.8425 -0.06375 0.935 0 0 Z " fill="#6CB573" transform="translate(482,905)"/>
<path d="M0 0 C0 0.99 0 1.98 0 3 C-0.66 3.66 -1.32 4.32 -2 5 C-2.6425235 7.06874034 -2.6425235 7.06874034 -3 9 C-3.99 9 -4.98 9 -6 9 C-4.68775452 5.06326356 -3.08089673 2.77280706 0 0 Z " fill="#A0D5A6" transform="translate(396,701)"/>
<path d="M0 0 C0 4.0333534 -1.60879918 5.83517538 -4 9 C-4.66 9 -5.32 9 -6 9 C-4.47291037 5.56404834 -2.40072955 2.88087546 0 0 Z " fill="#97D19A" transform="translate(403,692)"/>
<path d="M0 0 C0.99 0.33 1.98 0.66 3 1 C3 1.99 3 2.98 3 4 C3.66 4 4.32 4 5 4 C5 5.65 5 7.3 5 9 C0.57142857 3.85714286 0.57142857 3.85714286 0 0 Z " fill="#8DC991" transform="translate(1026,605)"/>
<path d="M0 0 C4.42857143 5.14285714 4.42857143 5.14285714 5 9 C4.01 9 3.02 9 2 9 C2 7.35 2 5.7 2 4 C1.34 4 0.68 4 0 4 C0 2.68 0 1.36 0 0 Z " fill="#94D19D" transform="translate(919,467)"/>
<path d="M0 0 C0.33 0.66 0.66 1.32 1 2 C0.0625 4.625 0.0625 4.625 -1 7 C-1.99 7 -2.98 7 -4 7 C-2.79618552 4.50638429 -1.54571278 2.31856917 0 0 Z " fill="#86C68A" transform="translate(357,754)"/>
<path d="M0 0 C0.99 0 1.98 0 3 0 C2.67 2.64 2.34 5.28 2 8 C-0.1519437 4.77208445 -0.20086443 3.71599191 0 0 Z " fill="#7CC182" transform="translate(274,736)"/>
<path d="M0 0 C0.99 0.99 1.98 1.98 3 3 C2.6875 6.6875 2.6875 6.6875 2 10 C1.67 10 1.34 10 1 10 C0.67 6.7 0.34 3.4 0 0 Z " fill="#A9DAAE" transform="translate(1000,613)"/>
<path d="M0 0 C2.50037734 2.17424117 3.43628586 3.73045798 4 7 C3.34 7 2.68 7 2 7 C2 6.34 2 5.68 2 5 C1.34 5 0.68 5 0 5 C-0.5625 3.0625 -0.5625 3.0625 -1 1 C-0.67 0.67 -0.34 0.34 0 0 Z " fill="#80C487" transform="translate(1062,474)"/>
<path d="M0 0 C-0.66 1.65 -1.32 3.3 -2 5 C-3.65 4.67 -5.3 4.34 -7 4 C-3.17391304 0 -3.17391304 0 0 0 Z " fill="#7EC686" transform="translate(942,323)"/>
</svg>
